<?xml version="1.0" encoding="UTF-8" standalone="no"?>
<!DOCTYPE svg PUBLIC "-//W3C//DTD SVG 1.1//EN"
 "http://www.w3.org/Graphics/SVG/1.1/DTD/svg11.dtd">
<!-- Generated by graphviz version 2.40.1 (20161225.0304)
 -->
<!-- Title: models_diagram Pages: 1 -->
<svg width="1034pt" height="607pt"
 viewBox="0.00 0.00 1034.19 607.00" xmlns="http://www.w3.org/2000/svg" xmlns:xlink="http://www.w3.org/1999/xlink">
<g id="graph0" class="graph" transform="scale(1 1) rotate(0) translate(4 603)">
<title>models_diagram</title>
<polygon fill="transparent" stroke="transparent" points="-4,4 -4,-603 1030.1931,-603 1030.1931,4 -4,4"/>
<!-- _diagram_info -->
<g id="node1" class="node">
<title>_diagram_info</title>
<text text-anchor="start" x="8" y="-486.6" font-family="Times,serif" font-size="13.00" fill="#000000">Models diagram</text>
<text text-anchor="start" x="8" y="-473.6" font-family="Times,serif" font-size="13.00" fill="#000000">Date: Mar 23 2017 &#45; 12:03</text>
<text text-anchor="start" x="8" y="-460.6" font-family="Times,serif" font-size="13.00" fill="#000000">Migration version: 20170302172513</text>
<text text-anchor="start" x="8" y="-447.6" font-family="Times,serif" font-size="13.00" fill="#000000">Generated by RailRoady 1.5.2</text>
<text text-anchor="start" x="8" y="-434.6" font-family="Times,serif" font-size="13.00" fill="#000000">http://railroady.prestonlee.com</text>
</g>
<!-- Athlete -->
<g id="node2" class="node">
<title>Athlete</title>
<path fill="none" stroke="#000000" d="M237.4583,-393.5C237.4583,-393.5 337.9172,-393.5 337.9172,-393.5 343.9172,-393.5 349.9172,-399.5 349.9172,-405.5 349.9172,-405.5 349.9172,-523.5 349.9172,-523.5 349.9172,-529.5 343.9172,-535.5 337.9172,-535.5 337.9172,-535.5 237.4583,-535.5 237.4583,-535.5 231.4583,-535.5 225.4583,-529.5 225.4583,-523.5 225.4583,-523.5 225.4583,-405.5 225.4583,-405.5 225.4583,-399.5 231.4583,-393.5 237.4583,-393.5"/>
<text text-anchor="middle" x="287.6877" y="-520.3" font-family="Times,serif" font-size="14.00" fill="#000000">Athlete</text>
<polyline fill="none" stroke="#000000" points="225.4583,-513.5 349.9172,-513.5 "/>
<text text-anchor="start" x="233.4583" y="-498.3" font-family="Times,serif" font-size="14.00" fill="#000000">sport :varchar</text>
<text text-anchor="start" x="233.4583" y="-484.3" font-family="Times,serif" font-size="14.00" fill="#000000">first_name :varchar</text>
<text text-anchor="start" x="233.4583" y="-470.3" font-family="Times,serif" font-size="14.00" fill="#000000">last_name :varchar</text>
<text text-anchor="start" x="233.4583" y="-456.3" font-family="Times,serif" font-size="14.00" fill="#000000">dob :varchar</text>
<text text-anchor="start" x="233.4583" y="-442.3" font-family="Times,serif" font-size="14.00" fill="#000000">grade :varchar</text>
<text text-anchor="start" x="233.4583" y="-428.3" font-family="Times,serif" font-size="14.00" fill="#000000">phone :varchar</text>
<text text-anchor="start" x="233.4583" y="-414.3" font-family="Times,serif" font-size="14.00" fill="#000000">address :varchar</text>
<text text-anchor="start" x="233.4583" y="-400.3" font-family="Times,serif" font-size="14.00" fill="#000000">id :INTEGER</text>
</g>
<!-- Injury -->
<g id="node5" class="node">
<title>Injury</title>
<path fill="none" stroke="#000000" d="M224.241,-137.5C224.241,-137.5 351.1345,-137.5 351.1345,-137.5 357.1345,-137.5 363.1345,-143.5 363.1345,-149.5 363.1345,-149.5 363.1345,-281.5 363.1345,-281.5 363.1345,-287.5 357.1345,-293.5 351.1345,-293.5 351.1345,-293.5 224.241,-293.5 224.241,-293.5 218.241,-293.5 212.241,-287.5 212.241,-281.5 212.241,-281.5 212.241,-149.5 212.241,-149.5 212.241,-143.5 218.241,-137.5 224.241,-137.5"/>
<text text-anchor="middle" x="287.6877" y="-278.3" font-family="Times,serif" font-size="14.00" fill="#000000">Injury</text>
<polyline fill="none" stroke="#000000" points="212.241,-271.5 363.1345,-271.5 "/>
<text text-anchor="start" x="220.241" y="-256.3" font-family="Times,serif" font-size="14.00" fill="#000000">time :varchar</text>
<text text-anchor="start" x="220.241" y="-242.3" font-family="Times,serif" font-size="14.00" fill="#000000">athlete_id :integer</text>
<text text-anchor="start" x="220.241" y="-228.3" font-family="Times,serif" font-size="14.00" fill="#000000">status :varchar</text>
<text text-anchor="start" x="220.241" y="-214.3" font-family="Times,serif" font-size="14.00" fill="#000000">active :boolean</text>
<text text-anchor="start" x="220.241" y="-200.3" font-family="Times,serif" font-size="14.00" fill="#000000">injury_location :varchar</text>
<text text-anchor="start" x="220.241" y="-186.3" font-family="Times,serif" font-size="14.00" fill="#000000">tcomment :text</text>
<text text-anchor="start" x="220.241" y="-172.3" font-family="Times,serif" font-size="14.00" fill="#000000">comment :text</text>
<text text-anchor="start" x="220.241" y="-158.3" font-family="Times,serif" font-size="14.00" fill="#000000">date :date</text>
<text text-anchor="start" x="220.241" y="-144.3" font-family="Times,serif" font-size="14.00" fill="#000000">id :INTEGER</text>
</g>
<!-- Athlete&#45;&gt;Injury -->
<g id="edge1" class="edge">
<title>Athlete&#45;&gt;Injury</title>
<path fill="none" stroke="#7c6c1a" d="M287.6877,-385.322C287.6877,-359.331 287.6877,-330.2882 287.6877,-303.6729"/>
<ellipse fill="none" stroke="#7c6c1a" cx="287.6878" cy="-389.4798" rx="4" ry="4"/>
<polygon fill="#7c6c1a" stroke="#7c6c1a" points="287.6878,-303.6026 292.1877,-293.6026 287.6878,-298.6026 287.6877,-293.6026 287.6877,-293.6026 287.6877,-293.6026 287.6878,-298.6026 283.1877,-293.6027 287.6878,-303.6026 287.6878,-303.6026"/>
</g>
<!-- Treatment -->
<g id="node10" class="node">
<title>Treatment</title>
<path fill="none" stroke="#000000" d="M395.5305,-144.5C395.5305,-144.5 541.845,-144.5 541.845,-144.5 547.845,-144.5 553.845,-150.5 553.845,-156.5 553.845,-156.5 553.845,-274.5 553.845,-274.5 553.845,-280.5 547.845,-286.5 541.845,-286.5 541.845,-286.5 395.5305,-286.5 395.5305,-286.5 389.5305,-286.5 383.5305,-280.5 383.5305,-274.5 383.5305,-274.5 383.5305,-156.5 383.5305,-156.5 383.5305,-150.5 389.5305,-144.5 395.5305,-144.5"/>
<text text-anchor="middle" x="468.6877" y="-271.3" font-family="Times,serif" font-size="14.00" fill="#000000">Treatment</text>
<polyline fill="none" stroke="#000000" points="383.5305,-264.5 553.845,-264.5 "/>
<text text-anchor="start" x="391.5305" y="-249.3" font-family="Times,serif" font-size="14.00" fill="#000000">time :varchar</text>
<text text-anchor="start" x="391.5305" y="-235.3" font-family="Times,serif" font-size="14.00" fill="#000000">athlete_id :integer</text>
<text text-anchor="start" x="391.5305" y="-221.3" font-family="Times,serif" font-size="14.00" fill="#000000">trainer_id :integer</text>
<text text-anchor="start" x="391.5305" y="-207.3" font-family="Times,serif" font-size="14.00" fill="#000000">treatment_location :varchar</text>
<text text-anchor="start" x="391.5305" y="-193.3" font-family="Times,serif" font-size="14.00" fill="#000000">taction_id :integer</text>
<text text-anchor="start" x="391.5305" y="-179.3" font-family="Times,serif" font-size="14.00" fill="#000000">comment :text</text>
<text text-anchor="start" x="391.5305" y="-165.3" font-family="Times,serif" font-size="14.00" fill="#000000">date :date</text>
<text text-anchor="start" x="391.5305" y="-151.3" font-family="Times,serif" font-size="14.00" fill="#000000">id :INTEGER</text>
</g>
<!-- Athlete&#45;&gt;Treatment -->
<g id="edge2" class="edge">
<title>Athlete&#45;&gt;Treatment</title>
<path fill="none" stroke="#0aea45" d="M325.1172,-386.0275C335.3809,-367.0807 347.1632,-347.3174 359.6877,-330 368.4616,-317.8685 378.4456,-305.7081 388.7256,-294.082"/>
<ellipse fill="none" stroke="#0aea45" cx="323.1456" cy="-389.7148" rx="4" ry="4"/>
<polygon fill="#0aea45" stroke="#0aea45" points="388.8314,-293.9641 398.8617,-289.5319 392.1727,-290.2444 395.514,-286.5248 395.514,-286.5248 395.514,-286.5248 392.1727,-290.2444 392.1663,-283.5176 388.8314,-293.9641 388.8314,-293.9641"/>
</g>
<!-- Cure -->
<g id="node3" class="node">
<title>Cure</title>
<path fill="none" stroke="#000000" d="M339.1824,-.5C339.1824,-.5 448.1931,-.5 448.1931,-.5 454.1931,-.5 460.1931,-6.5 460.1931,-12.5 460.1931,-12.5 460.1931,-88.5 460.1931,-88.5 460.1931,-94.5 454.1931,-100.5 448.1931,-100.5 448.1931,-100.5 339.1824,-100.5 339.1824,-100.5 333.1824,-100.5 327.1824,-94.5 327.1824,-88.5 327.1824,-88.5 327.1824,-12.5 327.1824,-12.5 327.1824,-6.5 333.1824,-.5 339.1824,-.5"/>
<text text-anchor="middle" x="393.6877" y="-85.3" font-family="Times,serif" font-size="14.00" fill="#000000">Cure</text>
<polyline fill="none" stroke="#000000" points="327.1824,-78.5 460.1931,-78.5 "/>
<text text-anchor="start" x="335.1824" y="-63.3" font-family="Times,serif" font-size="14.00" fill="#000000">id :INTEGER</text>
<text text-anchor="start" x="335.1824" y="-49.3" font-family="Times,serif" font-size="14.00" fill="#000000">treatment_id :integer</text>
<text text-anchor="start" x="335.1824" y="-35.3" font-family="Times,serif" font-size="14.00" fill="#000000">taction_id :integer</text>
<text text-anchor="start" x="335.1824" y="-21.3" font-family="Times,serif" font-size="14.00" fill="#000000">created_at :datetime</text>
<text text-anchor="start" x="335.1824" y="-7.3" font-family="Times,serif" font-size="14.00" fill="#000000">updated_at :datetime</text>
</g>
<!-- Impresssion -->
<g id="node4" class="node">
<title>Impresssion</title>
<path fill="none" stroke="#000000" d="M603.1824,-421.5C603.1824,-421.5 712.1931,-421.5 712.1931,-421.5 718.1931,-421.5 724.1931,-427.5 724.1931,-433.5 724.1931,-433.5 724.1931,-495.5 724.1931,-495.5 724.1931,-501.5 718.1931,-507.5 712.1931,-507.5 712.1931,-507.5 603.1824,-507.5 603.1824,-507.5 597.1824,-507.5 591.1824,-501.5 591.1824,-495.5 591.1824,-495.5 591.1824,-433.5 591.1824,-433.5 591.1824,-427.5 597.1824,-421.5 603.1824,-421.5"/>
<text text-anchor="middle" x="657.6877" y="-492.3" font-family="Times,serif" font-size="14.00" fill="#000000">Impresssion</text>
<polyline fill="none" stroke="#000000" points="591.1824,-485.5 724.1931,-485.5 "/>
<text text-anchor="start" x="599.1824" y="-470.3" font-family="Times,serif" font-size="14.00" fill="#000000">id :INTEGER</text>
<text text-anchor="start" x="599.1824" y="-456.3" font-family="Times,serif" font-size="14.00" fill="#000000">name :varchar</text>
<text text-anchor="start" x="599.1824" y="-442.3" font-family="Times,serif" font-size="14.00" fill="#000000">created_at :datetime</text>
<text text-anchor="start" x="599.1824" y="-428.3" font-family="Times,serif" font-size="14.00" fill="#000000">updated_at :datetime</text>
</g>
<!-- Location -->
<g id="node6" class="node">
<title>Location</title>
<path fill="none" stroke="#000000" d="M754.1824,-421.5C754.1824,-421.5 863.1931,-421.5 863.1931,-421.5 869.1931,-421.5 875.1931,-427.5 875.1931,-433.5 875.1931,-433.5 875.1931,-495.5 875.1931,-495.5 875.1931,-501.5 869.1931,-507.5 863.1931,-507.5 863.1931,-507.5 754.1824,-507.5 754.1824,-507.5 748.1824,-507.5 742.1824,-501.5 742.1824,-495.5 742.1824,-495.5 742.1824,-433.5 742.1824,-433.5 742.1824,-427.5 748.1824,-421.5 754.1824,-421.5"/>
<text text-anchor="middle" x="808.6877" y="-492.3" font-family="Times,serif" font-size="14.00" fill="#000000">Location</text>
<polyline fill="none" stroke="#000000" points="742.1824,-485.5 875.1931,-485.5 "/>
<text text-anchor="start" x="750.1824" y="-470.3" font-family="Times,serif" font-size="14.00" fill="#000000">id :INTEGER</text>
<text text-anchor="start" x="750.1824" y="-456.3" font-family="Times,serif" font-size="14.00" fill="#000000">location :varchar</text>
<text text-anchor="start" x="750.1824" y="-442.3" font-family="Times,serif" font-size="14.00" fill="#000000">created_at :datetime</text>
<text text-anchor="start" x="750.1824" y="-428.3" font-family="Times,serif" font-size="14.00" fill="#000000">updated_at :datetime</text>
</g>
<!-- Sport -->
<g id="node7" class="node">
<title>Sport</title>
<path fill="none" stroke="#000000" d="M905.1824,-421.5C905.1824,-421.5 1014.1931,-421.5 1014.1931,-421.5 1020.1931,-421.5 1026.1931,-427.5 1026.1931,-433.5 1026.1931,-433.5 1026.1931,-495.5 1026.1931,-495.5 1026.1931,-501.5 1020.1931,-507.5 1014.1931,-507.5 1014.1931,-507.5 905.1824,-507.5 905.1824,-507.5 899.1824,-507.5 893.1824,-501.5 893.1824,-495.5 893.1824,-495.5 893.1824,-433.5 893.1824,-433.5 893.1824,-427.5 899.1824,-421.5 905.1824,-421.5"/>
<text text-anchor="middle" x="959.6877" y="-492.3" font-family="Times,serif" font-size="14.00" fill="#000000">Sport</text>
<polyline fill="none" stroke="#000000" points="893.1824,-485.5 1026.1931,-485.5 "/>
<text text-anchor="start" x="901.1824" y="-470.3" font-family="Times,serif" font-size="14.00" fill="#000000">id :INTEGER</text>
<text text-anchor="start" x="901.1824" y="-456.3" font-family="Times,serif" font-size="14.00" fill="#000000">name :varchar</text>
<text text-anchor="start" x="901.1824" y="-442.3" font-family="Times,serif" font-size="14.00" fill="#000000">created_at :datetime</text>
<text text-anchor="start" x="901.1824" y="-428.3" font-family="Times,serif" font-size="14.00" fill="#000000">updated_at :datetime</text>
</g>
<!-- Taction -->
<g id="node8" class="node">
<title>Taction</title>
<path fill="none" stroke="#000000" d="M490.1824,-7.5C490.1824,-7.5 599.1931,-7.5 599.1931,-7.5 605.1931,-7.5 611.1931,-13.5 611.1931,-19.5 611.1931,-19.5 611.1931,-81.5 611.1931,-81.5 611.1931,-87.5 605.1931,-93.5 599.1931,-93.5 599.1931,-93.5 490.1824,-93.5 490.1824,-93.5 484.1824,-93.5 478.1824,-87.5 478.1824,-81.5 478.1824,-81.5 478.1824,-19.5 478.1824,-19.5 478.1824,-13.5 484.1824,-7.5 490.1824,-7.5"/>
<text text-anchor="middle" x="544.6877" y="-78.3" font-family="Times,serif" font-size="14.00" fill="#000000">Taction</text>
<polyline fill="none" stroke="#000000" points="478.1824,-71.5 611.1931,-71.5 "/>
<text text-anchor="start" x="486.1824" y="-56.3" font-family="Times,serif" font-size="14.00" fill="#000000">id :INTEGER</text>
<text text-anchor="start" x="486.1824" y="-42.3" font-family="Times,serif" font-size="14.00" fill="#000000">name :varchar</text>
<text text-anchor="start" x="486.1824" y="-28.3" font-family="Times,serif" font-size="14.00" fill="#000000">created_at :datetime</text>
<text text-anchor="start" x="486.1824" y="-14.3" font-family="Times,serif" font-size="14.00" fill="#000000">updated_at :datetime</text>
</g>
<!-- Trainer -->
<g id="node9" class="node">
<title>Trainer</title>
<path fill="none" stroke="#000000" d="M380.4099,-330.5C380.4099,-330.5 560.9656,-330.5 560.9656,-330.5 566.9656,-330.5 572.9656,-336.5 572.9656,-342.5 572.9656,-342.5 572.9656,-586.5 572.9656,-586.5 572.9656,-592.5 566.9656,-598.5 560.9656,-598.5 560.9656,-598.5 380.4099,-598.5 380.4099,-598.5 374.4099,-598.5 368.4099,-592.5 368.4099,-586.5 368.4099,-586.5 368.4099,-342.5 368.4099,-342.5 368.4099,-336.5 374.4099,-330.5 380.4099,-330.5"/>
<text text-anchor="middle" x="470.6877" y="-583.3" font-family="Times,serif" font-size="14.00" fill="#000000">Trainer</text>
<polyline fill="none" stroke="#000000" points="368.4099,-576.5 572.9656,-576.5 "/>
<text text-anchor="start" x="376.4099" y="-561.3" font-family="Times,serif" font-size="14.00" fill="#000000">updated_at :datetime</text>
<text text-anchor="start" x="376.4099" y="-547.3" font-family="Times,serif" font-size="14.00" fill="#000000">first_name :varchar</text>
<text text-anchor="start" x="376.4099" y="-533.3" font-family="Times,serif" font-size="14.00" fill="#000000">last_name :varchar</text>
<text text-anchor="start" x="376.4099" y="-519.3" font-family="Times,serif" font-size="14.00" fill="#000000">username :varchar</text>
<text text-anchor="start" x="376.4099" y="-505.3" font-family="Times,serif" font-size="14.00" fill="#000000">email :varchar</text>
<text text-anchor="start" x="376.4099" y="-491.3" font-family="Times,serif" font-size="14.00" fill="#000000">encrypted_password :varchar</text>
<text text-anchor="start" x="376.4099" y="-477.3" font-family="Times,serif" font-size="14.00" fill="#000000">admin :boolean</text>
<text text-anchor="start" x="376.4099" y="-463.3" font-family="Times,serif" font-size="14.00" fill="#000000">reset_password_token :varchar</text>
<text text-anchor="start" x="376.4099" y="-449.3" font-family="Times,serif" font-size="14.00" fill="#000000">reset_password_sent_at :datetime</text>
<text text-anchor="start" x="376.4099" y="-435.3" font-family="Times,serif" font-size="14.00" fill="#000000">remember_created_at :datetime</text>
<text text-anchor="start" x="376.4099" y="-421.3" font-family="Times,serif" font-size="14.00" fill="#000000">sign_in_count :integer</text>
<text text-anchor="start" x="376.4099" y="-407.3" font-family="Times,serif" font-size="14.00" fill="#000000">current_sign_in_at :datetime</text>
<text text-anchor="start" x="376.4099" y="-393.3" font-family="Times,serif" font-size="14.00" fill="#000000">last_sign_in_at :datetime</text>
<text text-anchor="start" x="376.4099" y="-379.3" font-family="Times,serif" font-size="14.00" fill="#000000">current_sign_in_ip :varchar</text>
<text text-anchor="start" x="376.4099" y="-365.3" font-family="Times,serif" font-size="14.00" fill="#000000">last_sign_in_ip :varchar</text>
<text text-anchor="start" x="376.4099" y="-351.3" font-family="Times,serif" font-size="14.00" fill="#000000">created_at :datetime</text>
<text text-anchor="start" x="376.4099" y="-337.3" font-family="Times,serif" font-size="14.00" fill="#000000">id :INTEGER</text>
</g>
<!-- Trainer&#45;&gt;Treatment -->
<g id="edge3" class="edge">
<title>Trainer&#45;&gt;Treatment</title>
<path fill="none" stroke="#52734e" d="M469.5443,-322.1359C469.4755,-313.5797 469.4077,-305.1385 469.3422,-296.9784"/>
<ellipse fill="none" stroke="#52734e" cx="469.5765" cy="-326.1611" rx="4" ry="4"/>
<polygon fill="#52734e" stroke="#52734e" points="469.3409,-296.8049 473.7603,-286.769 469.3007,-291.8051 469.2605,-286.8052 469.2605,-286.8052 469.2605,-286.8052 469.3007,-291.8051 464.7606,-286.8414 469.3409,-296.8049 469.3409,-296.8049"/>
</g>
<!-- Treatment&#45;&gt;Cure -->
<g id="edge4" class="edge">
<title>Treatment&#45;&gt;Cure</title>
<path fill="none" stroke="#e9c7a3" d="M432.7837,-136.5111C428.7093,-127.5473 424.6097,-118.5282 420.6777,-109.878"/>
<ellipse fill="none" stroke="#e9c7a3" cx="434.5726" cy="-140.4468" rx="4" ry="4"/>
<polygon fill="#e9c7a3" stroke="#e9c7a3" points="420.6242,-109.7601 420.5828,-98.7943 418.5552,-105.2083 416.4861,-100.6564 416.4861,-100.6564 416.4861,-100.6564 418.5552,-105.2083 412.3895,-102.5186 420.6242,-109.7601 420.6242,-109.7601"/>
</g>
<!-- Treatment&#45;&gt;Taction -->
<g id="edge5" class="edge">
<title>Treatment&#45;&gt;Taction</title>
<path fill="none" stroke="#1f760f" d="M505.8398,-134.8409C510.8172,-124.0347 515.814,-113.1863 520.4884,-103.038"/>
<polygon fill="#1f760f" stroke="#1f760f" points="505.7641,-135.0054 497.4932,-142.2056 503.6723,-139.5468 501.5804,-144.0882 501.5804,-144.0882 501.5804,-144.0882 503.6723,-139.5468 505.6677,-145.9709 505.7641,-135.0054 505.7641,-135.0054"/>
<polygon fill="#1f760f" stroke="#1f760f" points="520.4972,-103.0189 528.7681,-95.8187 522.589,-98.4775 524.6808,-93.9361 524.6808,-93.9361 524.6808,-93.9361 522.589,-98.4775 520.5936,-92.0534 520.4972,-103.0189 520.4972,-103.0189"/>
</g>
</g>
</svg>
