<?xml version="1.0" encoding="UTF-8" standalone="no"?>
<!DOCTYPE svg PUBLIC "-//W3C//DTD SVG 1.1//EN"
 "http://www.w3.org/Graphics/SVG/1.1/DTD/svg11.dtd">
<!-- Generated by graphviz version 2.40.1 (20161225.0304)
 -->
<!-- Title: models_diagram Pages: 1 -->
<svg width="700pt" height="225pt"
 viewBox="0.00 0.00 699.96 225.00" xmlns="http://www.w3.org/2000/svg" xmlns:xlink="http://www.w3.org/1999/xlink">
<g id="graph0" class="graph" transform="scale(1 1) rotate(0) translate(4 221)">
<title>models_diagram</title>
<polygon fill="transparent" stroke="transparent" points="-4,4 -4,-221 695.9583,-221 695.9583,4 -4,4"/>
<!-- _diagram_info -->
<g id="node1" class="node">
<title>_diagram_info</title>
<text text-anchor="start" x="8" y="-202.6" font-family="Times,serif" font-size="13.00" fill="#000000">Models diagram</text>
<text text-anchor="start" x="8" y="-189.6" font-family="Times,serif" font-size="13.00" fill="#000000">Date: Mar 23 2017 &#45; 12:03</text>
<text text-anchor="start" x="8" y="-176.6" font-family="Times,serif" font-size="13.00" fill="#000000">Migration version: 20170302172513</text>
<text text-anchor="start" x="8" y="-163.6" font-family="Times,serif" font-size="13.00" fill="#000000">Generated by RailRoady 1.5.2</text>
<text text-anchor="start" x="8" y="-150.6" font-family="Times,serif" font-size="13.00" fill="#000000">http://railroady.prestonlee.com</text>
</g>
<!-- Athlete -->
<g id="node2" class="node">
<title>Athlete</title>
<ellipse fill="none" stroke="#000000" cx="261.6877" cy="-180.5" rx="36.2732" ry="18"/>
<text text-anchor="middle" x="261.6877" y="-176.3" font-family="Times,serif" font-size="14.00" fill="#000000">Athlete</text>
</g>
<!-- Injury -->
<g id="node5" class="node">
<title>Injury</title>
<ellipse fill="none" stroke="#000000" cx="258.6877" cy="-90" rx="31.9393" ry="18"/>
<text text-anchor="middle" x="258.6877" y="-85.8" font-family="Times,serif" font-size="14.00" fill="#000000">Injury</text>
</g>
<!-- Athlete&#45;&gt;Injury -->
<g id="edge1" class="edge">
<title>Athlete&#45;&gt;Injury</title>
<path fill="none" stroke="#cc0c5f" d="M260.8083,-153.9687C260.4394,-142.8402 260.0097,-129.878 259.6339,-118.5429"/>
<ellipse fill="none" stroke="#cc0c5f" cx="260.9481" cy="-158.1882" rx="4" ry="4"/>
<polygon fill="#cc0c5f" stroke="#cc0c5f" points="259.6253,-118.2813 263.7915,-108.1377 259.4596,-113.284 259.2939,-108.2868 259.2939,-108.2868 259.2939,-108.2868 259.4596,-113.284 254.7964,-108.4359 259.6253,-118.2813 259.6253,-118.2813"/>
</g>
<!-- Treatment -->
<g id="node10" class="node">
<title>Treatment</title>
<ellipse fill="none" stroke="#000000" cx="354.6877" cy="-90" rx="46.2745" ry="18"/>
<text text-anchor="middle" x="354.6877" y="-85.8" font-family="Times,serif" font-size="14.00" fill="#000000">Treatment</text>
</g>
<!-- Athlete&#45;&gt;Treatment -->
<g id="edge2" class="edge">
<title>Athlete&#45;&gt;Treatment</title>
<path fill="none" stroke="#1164b1" d="M284.0598,-158.7294C297.8392,-145.3204 315.5284,-128.1067 329.7566,-114.261"/>
<ellipse fill="none" stroke="#1164b1" cx="281.181" cy="-161.5308" rx="4" ry="4"/>
<polygon fill="#1164b1" stroke="#1164b1" points="330.0915,-113.9351 340.3966,-110.186 333.6749,-110.448 337.2583,-106.961 337.2583,-106.961 337.2583,-106.961 333.6749,-110.448 334.1199,-103.7359 330.0915,-113.9351 330.0915,-113.9351"/>
</g>
<!-- Cure -->
<g id="node3" class="node">
<title>Cure</title>
<ellipse fill="none" stroke="#000000" cx="313.6877" cy="-18" rx="27.0958" ry="18"/>
<text text-anchor="middle" x="313.6877" y="-13.8" font-family="Times,serif" font-size="14.00" fill="#000000">Cure</text>
</g>
<!-- Impresssion -->
<g id="node4" class="node">
<title>Impresssion</title>
<ellipse fill="none" stroke="#000000" cx="461.6877" cy="-180.5" rx="52.6952" ry="18"/>
<text text-anchor="middle" x="461.6877" y="-176.3" font-family="Times,serif" font-size="14.00" fill="#000000">Impresssion</text>
</g>
<!-- Location -->
<g id="node6" class="node">
<title>Location</title>
<ellipse fill="none" stroke="#000000" cx="573.6877" cy="-180.5" rx="41.5766" ry="18"/>
<text text-anchor="middle" x="573.6877" y="-176.3" font-family="Times,serif" font-size="14.00" fill="#000000">Location</text>
</g>
<!-- Sport -->
<g id="node7" class="node">
<title>Sport</title>
<ellipse fill="none" stroke="#000000" cx="662.6877" cy="-180.5" rx="29.0429" ry="18"/>
<text text-anchor="middle" x="662.6877" y="-176.3" font-family="Times,serif" font-size="14.00" fill="#000000">Sport</text>
</g>
<!-- Taction -->
<g id="node8" class="node">
<title>Taction</title>
<ellipse fill="none" stroke="#000000" cx="395.6877" cy="-18" rx="36.4981" ry="18"/>
<text text-anchor="middle" x="395.6877" y="-13.8" font-family="Times,serif" font-size="14.00" fill="#000000">Taction</text>
</g>
<!-- Trainer -->
<g id="node9" class="node">
<title>Trainer</title>
<ellipse fill="none" stroke="#000000" cx="354.6877" cy="-180.5" rx="35.6431" ry="18"/>
<text text-anchor="middle" x="354.6877" y="-176.3" font-family="Times,serif" font-size="14.00" fill="#000000">Trainer</text>
</g>
<!-- Trainer&#45;&gt;Treatment -->
<g id="edge3" class="edge">
<title>Trainer&#45;&gt;Treatment</title>
<path fill="none" stroke="#cd0f3d" d="M354.6877,-153.9687C354.6877,-142.8402 354.6877,-129.878 354.6877,-118.5429"/>
<ellipse fill="none" stroke="#cd0f3d" cx="354.6878" cy="-158.186" rx="4" ry="4"/>
<polygon fill="#cd0f3d" stroke="#cd0f3d" points="354.6878,-118.2868 359.1877,-108.2867 354.6878,-113.2868 354.6877,-108.2868 354.6877,-108.2868 354.6877,-108.2868 354.6878,-113.2868 350.1877,-108.2868 354.6878,-118.2868 354.6878,-118.2868"/>
</g>
<!-- Treatment&#45;&gt;Cure -->
<g id="edge4" class="edge">
<title>Treatment&#45;&gt;Cure</title>
<path fill="none" stroke="#a8e2f3" d="M340.5892,-65.2417C336.6995,-58.4109 332.468,-50.98 328.5372,-44.0771"/>
<ellipse fill="none" stroke="#a8e2f3" cx="342.5735" cy="-68.7263" rx="4" ry="4"/>
<polygon fill="#a8e2f3" stroke="#a8e2f3" points="328.3721,-43.7871 327.3341,-32.8704 325.8979,-39.4422 323.4237,-35.0972 323.4237,-35.0972 323.4237,-35.0972 325.8979,-39.4422 319.5132,-37.324 328.3721,-43.7871 328.3721,-43.7871"/>
</g>
<!-- Treatment&#45;&gt;Taction -->
<g id="edge5" class="edge">
<title>Treatment&#45;&gt;Taction</title>
<path fill="none" stroke="#5d5794" d="M369.9098,-63.2686C373.4805,-56.9982 377.2803,-50.3252 380.8346,-44.0835"/>
<polygon fill="#5d5794" stroke="#5d5794" points="369.771,-63.5124 360.9121,-69.9754 367.2968,-67.8573 364.8226,-72.2022 364.8226,-72.2022 364.8226,-72.2022 367.2968,-67.8573 368.733,-74.429 369.771,-63.5124 369.771,-63.5124"/>
<polygon fill="#5d5794" stroke="#5d5794" points="380.8625,-44.0344 389.7214,-37.5714 383.3367,-39.6895 385.811,-35.3446 385.811,-35.3446 385.811,-35.3446 383.3367,-39.6895 381.9005,-33.1178 380.8625,-44.0344 380.8625,-44.0344"/>
</g>
</g>
</svg>
